<?xml version="1.0" encoding="UTF-8"?>
<!DOCTYPE svg PUBLIC "-//W3C//DTD SVG 1.1//EN" "http://www.w3.org/Graphics/SVG/1.1/DTD/svg11.dtd">
<svg xmlns="http://www.w3.org/2000/svg" version="1.1" width="500px" height="500px" style="shape-rendering:geometricPrecision; text-rendering:geometricPrecision; image-rendering:optimizeQuality; fill-rule:evenodd; clip-rule:evenodd" xmlns:xlink="http://www.w3.org/1999/xlink">
<g><path style="opacity:1" fill="#fedd4e" d="M 229.5,-0.5 C 242.833,-0.5 256.167,-0.5 269.5,-0.5C 269.5,0.166667 269.833,0.5 270.5,0.5C 279.631,2.31038 288.964,3.64371 298.5,4.5C 304.455,5.07349 310.122,6.40683 315.5,8.5C 317.515,9.92381 319.848,10.5905 322.5,10.5C 407.242,38.0759 463.075,94.4092 490,179.5C 494.545,196.052 497.712,212.719 499.5,229.5C 499.5,242.833 499.5,256.167 499.5,269.5C 491.2,347.961 455.2,410.127 391.5,456C 354.453,480.737 313.786,495.237 269.5,499.5C 256.167,499.5 242.833,499.5 229.5,499.5C 143.711,489.879 78.211,448.545 33,375.5C 19.0023,351.503 9.50228,325.837 4.5,298.5C 4.67802,294.878 4.01136,291.544 2.5,288.5C 1.70105,285.57 1.36772,282.57 1.5,279.5C -0.252439,254.759 0.414227,230.092 3.5,205.5C 3.21552,203.585 3.54885,201.919 4.5,200.5C 5.91301,197.781 6.57968,194.781 6.5,191.5C 6.36596,189.708 6.69929,188.042 7.5,186.5C 9.60585,182.509 10.9392,178.176 11.5,173.5C 15.426,159.041 21.0927,145.374 28.5,132.5C 29.9063,132.027 30.573,131.027 30.5,129.5C 30.6596,127.847 31.3263,126.514 32.5,125.5C 33.9063,125.027 34.573,124.027 34.5,122.5C 34.3284,121.508 34.6618,120.842 35.5,120.5C 36.9063,120.027 37.573,119.027 37.5,117.5C 37.3284,116.508 37.6618,115.842 38.5,115.5C 39.9063,115.027 40.573,114.027 40.5,112.5C 41.9063,112.027 42.573,111.027 42.5,109.5C 44.4354,105.293 47.1021,101.627 50.5,98.5C 52.5869,97.4154 53.9202,95.7488 54.5,93.5C 55.4194,90.9108 57.086,88.9108 59.5,87.5C 61.5869,86.4154 62.9202,84.7488 63.5,82.5C 65.1667,80.1667 67.1667,78.1667 69.5,76.5C 72.1667,74.5 74.5,72.1667 76.5,69.5C 80.7706,66.8991 84.4372,63.5658 87.5,59.5C 88.9108,57.086 90.9108,55.4194 93.5,54.5C 95.7488,53.9202 97.4154,52.5869 98.5,50.5C 102.806,46.6786 107.473,43.3453 112.5,40.5C 114.027,40.573 115.027,39.9063 115.5,38.5C 120.665,34.4137 126.332,31.0804 132.5,28.5C 138.175,27.4942 143.175,25.1609 147.5,21.5C 147.842,20.6618 148.508,20.3284 149.5,20.5C 153.358,20.2299 156.691,18.8966 159.5,16.5C 160.78,15.0687 162.447,14.4021 164.5,14.5C 169.915,13.8062 174.915,12.1395 179.5,9.5C 182.228,9.82943 184.562,9.16276 186.5,7.5C 188.042,6.69929 189.708,6.36596 191.5,6.5C 194.781,6.57968 197.781,5.91301 200.5,4.5C 201.919,3.54885 203.585,3.21552 205.5,3.5C 213.396,3.23481 221.063,2.23481 228.5,0.5C 229.167,0.5 229.5,0.166667 229.5,-0.5 Z"/></g>
<g><path style="opacity:0.465" fill="#fff7d8" d="M 270.5,0.5 C 280.109,0.825044 289.442,2.15838 298.5,4.5C 288.964,3.64371 279.631,2.31038 270.5,0.5 Z"/></g>
<g><path style="opacity:1" fill="#fff2bd" d="M 228.5,0.5 C 221.063,2.23481 213.396,3.23481 205.5,3.5C 212.926,1.67886 220.592,0.678861 228.5,0.5 Z"/></g>
<g><path style="opacity:1" fill="#fff3c2" d="M 200.5,4.5 C 197.781,5.91301 194.781,6.57968 191.5,6.5C 194.219,5.08699 197.219,4.42032 200.5,4.5 Z"/></g>
<g><path style="opacity:1" fill="#fff4ca" d="M 186.5,7.5 C 184.562,9.16276 182.228,9.82943 179.5,9.5C 181.599,8.38815 183.933,7.72148 186.5,7.5 Z"/></g>
<g><path style="opacity:0.304" fill="#fff9de" d="M 315.5,8.5 C 318.152,8.40953 320.485,9.07619 322.5,10.5C 319.848,10.5905 317.515,9.92381 315.5,8.5 Z"/></g>
<g><path style="opacity:1" fill="#fff0b3" d="M 179.5,9.5 C 174.915,12.1395 169.915,13.8062 164.5,14.5C 169.216,12.2613 174.216,10.5946 179.5,9.5 Z"/></g>
<g><path style="opacity:1" fill="#ffeda5" d="M 159.5,16.5 C 156.691,18.8966 153.358,20.2299 149.5,20.5C 152.53,18.5968 155.863,17.2635 159.5,16.5 Z"/></g>
<g><path style="opacity:1" fill="#ffeda5" d="M 147.5,21.5 C 143.175,25.1609 138.175,27.4942 132.5,28.5C 137.081,25.3777 142.081,23.0444 147.5,21.5 Z"/></g>
<g><path style="opacity:1" fill="#fff7d9" d="M 115.5,38.5 C 115.027,39.9063 114.027,40.573 112.5,40.5C 112.973,39.0937 113.973,38.427 115.5,38.5 Z"/></g>
<g><path style="opacity:1" fill="#ffefb1" d="M 98.5,50.5 C 97.4154,52.5869 95.7488,53.9202 93.5,54.5C 94.5846,52.4131 96.2512,51.0798 98.5,50.5 Z"/></g>
<g><path style="opacity:1" fill="#ffeb9d" d="M 87.5,59.5 C 84.4372,63.5658 80.7706,66.8991 76.5,69.5C 79.5628,65.4342 83.2294,62.1009 87.5,59.5 Z"/></g>
<g><path style="opacity:1" fill="#fff6d5" d="M 76.5,69.5 C 74.5,72.1667 72.1667,74.5 69.5,76.5C 70.8333,73.1667 73.1667,70.8333 76.5,69.5 Z"/></g>
<g><path style="opacity:1" fill="#0d0404" d="M 282.5,74.5 C 289.589,74.1156 296.589,74.6156 303.5,76C 313.566,82.2409 313.899,88.9075 304.5,96C 290.123,105.96 274.123,111.46 256.5,112.5C 237.187,137.126 218.854,162.459 201.5,188.5C 210.541,189.404 219.541,190.571 228.5,192C 233.54,194.196 234.707,197.696 232,202.5C 227.466,206.699 223.299,211.199 219.5,216C 207.512,215.302 195.512,215.468 183.5,216.5C 164.667,246.167 145.833,275.833 127,305.5C 124.615,307.776 121.781,309.109 118.5,309.5C 112.532,309.063 106.866,307.563 101.5,305C 99.9995,299.852 100.833,295.019 104,290.5C 119.578,265.759 135.745,241.426 152.5,217.5C 151,217.167 149.5,216.833 148,216.5C 138.847,217.202 129.68,217.702 120.5,218C 112.191,218.235 104.025,219.401 96,221.5C 93.2324,220.725 92.0657,218.892 92.5,216C 94.798,208.356 98.798,201.689 104.5,196C 106.888,194.139 109.554,192.806 112.5,192C 132.441,189.87 152.441,188.536 172.5,188C 187.946,164.445 204.612,141.778 222.5,120C 192.009,124.026 161.343,125.359 130.5,124C 122.153,122.799 114.153,120.465 106.5,117C 93.6148,108.347 92.2815,98.3474 102.5,87C 112.059,80.9582 122.059,79.9582 132.5,84C 130.377,85.1937 128.043,85.8603 125.5,86C 122.606,87.3922 120.606,89.5589 119.5,92.5C 120.477,95.1748 122.477,96.6748 125.5,97C 166.968,101.116 208.302,100.116 249.5,94C 259.342,85.4171 270.342,78.9171 282.5,74.5 Z"/></g>
<g><path style="opacity:1" fill="#fff3c4" d="M 63.5,82.5 C 62.9202,84.7488 61.5869,86.4154 59.5,87.5C 60.0798,85.2512 61.4131,83.5846 63.5,82.5 Z"/></g>
<g><path style="opacity:1" fill="#fff4c7" d="M 54.5,93.5 C 53.9202,95.7488 52.5869,97.4154 50.5,98.5C 51.0798,96.2512 52.4131,94.5846 54.5,93.5 Z"/></g>
<g><path style="opacity:1" fill="#fff8e0" d="M 42.5,109.5 C 42.573,111.027 41.9063,112.027 40.5,112.5C 40.427,110.973 41.0937,109.973 42.5,109.5 Z"/></g>
<g><path style="opacity:0.984" fill="#fffae9" d="M 40.5,112.5 C 40.573,114.027 39.9063,115.027 38.5,115.5C 38.427,113.973 39.0937,112.973 40.5,112.5 Z"/></g>
<g><path style="opacity:1" fill="#fff7d8" d="M 37.5,117.5 C 37.573,119.027 36.9063,120.027 35.5,120.5C 35.427,118.973 36.0937,117.973 37.5,117.5 Z"/></g>
<g><path style="opacity:1" fill="#fff8df" d="M 34.5,122.5 C 34.573,124.027 33.9063,125.027 32.5,125.5C 32.427,123.973 33.0937,122.973 34.5,122.5 Z"/></g>
<g><path style="opacity:0.953" fill="#fff8df" d="M 30.5,129.5 C 30.573,131.027 29.9063,132.027 28.5,132.5C 28.427,130.973 29.0937,129.973 30.5,129.5 Z"/></g>
<g><path style="opacity:1" fill="#fff2be" d="M 11.5,173.5 C 10.9392,178.176 9.60585,182.509 7.5,186.5C 8.07772,181.835 9.41105,177.501 11.5,173.5 Z"/></g>
<g><path style="opacity:1" fill="#fff3c5" d="M 6.5,191.5 C 6.57968,194.781 5.91301,197.781 4.5,200.5C 4.42032,197.219 5.08699,194.219 6.5,191.5 Z"/></g>
<g><path style="opacity:1" fill="#0c0403" d="M 434.5,232.5 C 456.131,231.771 462.965,241.437 455,261.5C 448.138,278.229 439.471,293.896 429,308.5C 397.728,351.11 361.562,389.277 320.5,423C 309.42,431.541 297.42,438.541 284.5,444C 263.121,447.954 254.287,439.121 258,417.5C 259.224,410.269 261.224,403.269 264,396.5C 270.389,382.518 277.056,368.852 284,355.5C 265.177,377.656 245.011,398.489 223.5,418C 212.689,426.91 201.023,434.576 188.5,441C 175.73,446.719 165.564,443.553 158,431.5C 155.757,422.319 156.424,413.319 160,404.5C 163.985,392.208 169.319,380.542 176,369.5C 197.339,335.365 222.172,303.865 250.5,275C 249.833,274.333 249.167,274.333 248.5,275C 239.795,283.371 229.795,289.704 218.5,294C 212.731,295.368 208.231,293.534 205,288.5C 200.969,283.318 200.635,277.985 204,272.5C 206.167,270.333 208.333,268.167 210.5,266C 212.586,264.173 214.586,264.173 216.5,266C 213.567,268.351 213.901,269.351 217.5,269C 235.167,258.667 252.833,248.333 270.5,238C 280.645,236.411 288.645,239.745 294.5,248C 293.724,250.995 292.557,253.828 291,256.5C 261.179,293.986 232.512,332.319 205,371.5C 199.265,380.913 193.932,390.579 189,400.5C 187.096,403.923 186.263,407.59 186.5,411.5C 189.516,411.159 192.182,409.993 194.5,408C 245.198,361.636 293.531,312.969 339.5,262C 348.793,258.745 358.127,258.745 367.5,262C 370.087,263.525 370.92,265.692 370,268.5C 339.804,304.194 315.137,343.528 296,386.5C 293.715,392.07 291.715,397.736 290,403.5C 288.687,412.295 291.52,413.795 298.5,408C 343.093,371.419 381.26,329.252 413,281.5C 419.184,272.32 424.017,262.487 427.5,252C 427.216,247.547 424.883,245.381 420.5,245.5C 418.13,245.924 415.796,246.091 413.5,246C 412.483,244.951 412.316,243.784 413,242.5C 419.952,238.437 427.119,235.104 434.5,232.5 Z"/></g>
<g><path style="opacity:1" fill="#fff3bf" d="M 3.5,205.5 C 0.414227,230.092 -0.252439,254.759 1.5,279.5C 0.833333,276.167 0.166667,272.833 -0.5,269.5C -0.5,256.167 -0.5,242.833 -0.5,229.5C 0.55352,221.46 1.88685,213.46 3.5,205.5 Z"/></g>
<g><path style="opacity:0.937" fill="#fff6d3" d="M 2.5,288.5 C 4.01136,291.544 4.67802,294.878 4.5,298.5C 3.21543,295.411 2.54877,292.078 2.5,288.5 Z"/></g>
</svg>
